# This file uses centimeters as units for non-parametric coordinates.

mtllib FerrariSideMirrorPrefab.mtl
g default
v 1.061200 0.638299 0.410603
v 1.083764 0.649972 0.400203
v 1.032010 0.742281 0.421203
v 0.940968 0.762595 0.461503
v 0.886725 0.759889 0.485903
v 0.863259 0.727980 0.497103
v 0.861315 0.671998 0.499403
v 0.869052 0.643815 0.496603
v 1.080316 0.695490 0.400703
v 1.072485 0.716668 0.403703
v 0.987415 0.754967 0.440803
v 0.871686 0.750840 0.492803
v 0.885381 0.629592 0.489603
v 0.982168 0.631457 0.446203
vt 0.959200 0.761500
vt 0.983500 0.776300
vt 0.975100 0.820000
vt 0.903800 0.748800
vt 0.932200 0.753700
vt 0.926600 0.822600
vt 0.987900 0.788300
vt 0.989100 0.813800
vt 0.867400 0.822300
vt 0.857600 0.814100
vt 0.853400 0.798200
vt 0.855600 0.767000
vt 0.870600 0.749500
vt 0.861200 0.754400
vn -0.407575 -0.021350 -0.912922
vn -0.408193 -0.021571 -0.912641
vn -0.408759 -0.021737 -0.912384
vn -0.409235 -0.021966 -0.912165
vn -0.409179 -0.022183 -0.912185
vn -0.408999 -0.022273 -0.912263
vn -0.408294 -0.021505 -0.912597
vn -0.409508 -0.021007 -0.912065
vn -0.408759 -0.021737 -0.912384
vn -0.409179 -0.022183 -0.912185
vn -0.407575 -0.021350 -0.912922
vn -0.408759 -0.021737 -0.912384
vn -0.408999 -0.022273 -0.912263
vn -0.409229 -0.021683 -0.912174
vn -0.409235 -0.021966 -0.912165
vn -0.409534 -0.021558 -0.912040
vn -0.408892 -0.022154 -0.912314
vn -0.409235 -0.021966 -0.912165
vn -0.409235 -0.021966 -0.912165
vn -0.409229 -0.021683 -0.912174
vn -0.409534 -0.021558 -0.912040
vn -0.408892 -0.022154 -0.912314
vn -0.407849 -0.022473 -0.912773
vn -0.409235 -0.021966 -0.912165
vn -0.407849 -0.022473 -0.912773
vn -0.408852 -0.019581 -0.912390
vn -0.409235 -0.021966 -0.912165
vn -0.408193 -0.021571 -0.912641
vn -0.408294 -0.021505 -0.912597
vn -0.408759 -0.021737 -0.912384
vn -0.409179 -0.022183 -0.912185
vn -0.408759 -0.021737 -0.912384
vn -0.408999 -0.022273 -0.912263
vn -0.407849 -0.022473 -0.912773
vn -0.405820 -0.022269 -0.913682
vn -0.408852 -0.019581 -0.912390
s off
g sideMirror
usemtl initialShadingGroup
f 3/1/1 10/2/2 1/3/3
f 4/4/4 11/5/5 14/6/6
f 9/7/7 2/8/8 1/3/9
f 11/5/10 3/1/11 1/3/12
f 14/6/13 13/9/14 4/4/15
f 8/10/16 7/11/17 4/4/18
f 4/4/19 13/9/20 8/10/21
f 7/11/22 6/12/23 4/4/24
f 6/12/25 5/13/26 4/4/27
f 10/2/28 9/7/29 1/3/30
f 11/5/31 1/3/32 14/6/33
f 6/12/34 12/14/35 5/13/36
